:SAMPLES-PER-SECOND 30
:FULLY-SPECIFIED
:DEGREES
265
root  -16.8514 34.7756 19.8582 6.73413 -56.6613 5.11082
RightUpLeg  -0.93609 2.15877 5.04748
RightLeg  9.12285 3.97014 0.379011
RightFoot  -1.65435 -0.00747639 0.0255025
RightToes  -2.39464 -0.00385056 -0.0225269
Spine  -1.68318 3.36124 -2.1281
Spine1  -3.47475 6.69589 -3.58187
HEad  -57.0263 -24.1246 5.59763
LeftShoulder1  -1.94126e-019 -3.10601e-018 -2.51263e-017
LeftArm  -19.1394 35.9506 -71.5421
LeftForeArm  24.7171 -27.84 -4.63184
LeftHand  -0.399449 -0.867095 7.53896
RightShoulder  -4.96962e-017 0 -2.36833e-017
RightArm  -17.0619 -9.83936 65.8965
RightForeArm  47.8181 27.6085 3.44033
RightHand  -0.308869 -2.00068 -10.364
LeftUpLeg  -28.8877 6.7196 0.0754924
LeftLeg  35.1825 12.1243 7.32899
LeftFoot  9.92368 -0.216179 2.6512
LeftToes  -32.2323 1.87998e-006 4.79886e-008
266
root  -17.9852 34.5484 20.8142 7.26682 -60.0948 5.22527
RightUpLeg  0.559775 4.81046 4.69502
RightLeg  9.52777 3.63634 0.373158
RightFoot  -2.84053 -0.0140885 -0.0336099
RightToes  -2.37559 -0.00637565 -0.0223488
Spine  -2.06736 3.31174 -1.90702
Spine1  -4.21761 6.59169 -3.14434
HEad  -56.7225 -22.2713 5.40907
LeftShoulder1  -1.94126e-019 -3.10601e-018 -2.51263e-017
LeftArm  -18.3199 37.4088 -72.0554
LeftForeArm  25.9739 -25.852 -4.1356
LeftHand  -0.402521 -1.41958 7.02304
RightShoulder  -4.96962e-017 0 -2.36833e-017
RightArm  -13.7019 -11.0176 64.1106
RightForeArm  49.6876 29.5673 3.77576
RightHand  -0.328318 -1.98354 -10.9831
LeftUpLeg  -28.9011 4.15878 1.02773
LeftLeg  22.7935 10.7844 3.70642
LeftFoot  8.71255 -0.133453 1.91327
LeftToes  -29.5002 1.87998e-006 4.79886e-008
267
root  -19.1898 34.2336 21.8278 5.41631 -62.9417 7.28226
RightUpLeg  1.99086 5.49226 3.34723
RightLeg  11.6229 3.58825 0.501036
RightFoot  -4.95077 -0.0296448 -0.157523
RightToes  -5.25551 -0.0153386 -0.0490584
Spine  -2.23346 3.15981 -2.02602
Spine1  -4.54532 6.30423 -3.38381
HEad  -56.6919 -20.8179 5.54669
LeftShoulder1  -1.94126e-019 -3.10601e-018 -2.51263e-017
LeftArm  -16.8086 38.1944 -71.631
LeftForeArm  26.6532 -23.4095 -3.6165
LeftHand  -0.403638 -1.68415 6.79908
RightShoulder  -4.96962e-017 0 -2.36833e-017
RightArm  -12.9746 -12.5937 63.328
RightForeArm  50.6483 30.809 4.0044
RightHand  -0.371252 -1.63802 -11.3453
LeftUpLeg  -27.9061 -0.50282 1.89607
LeftLeg  12.2882 10.6903 1.60646
LeftFoot  10.8792 -0.197304 2.23328
LeftToes  -32.011 1.87998e-006 4.79886e-008
268
root  -20.4623 33.862 22.9437 1.12196 -65.0689 11.359
RightUpLeg  3.0353 4.57832 0.831125
RightLeg  15.9383 4.41156 0.957171
RightFoot  -7.14192 -0.0576335 -0.403224
RightToes  -11.8411 -0.0407926 -0.10821
Spine  -2.22238 2.89109 -2.49983
Spine1  -4.54437 5.79294 -4.33153
HEad  -56.5871 -19.9189 6.26999
LeftShoulder1  -1.94126e-019 -3.10601e-018 -2.51263e-017
LeftArm  -15.2965 38.1027 -70.3057
LeftForeArm  27.3928 -20.4073 -3.05051
LeftHand  -0.40487 -1.65905 6.84167
RightShoulder  -4.96962e-017 0 -2.36833e-017
RightArm  -14.9252 -14.3401 63.84
RightForeArm  50.2174 30.6708 3.99127
RightHand  -0.361398 -1.74896 -11.3629
LeftUpLeg  -27.0776 -6.91604 2.52346
LeftLeg  7.43629 11.8462 0.770768
LeftFoot  14.1298 -0.366048 3.11445
LeftToes  -30.1742 1.87998e-006 4.79886e-008
269
root  -21.7946 33.4485 24.1848 -4.9039 -66.7341 16.5474
RightUpLeg  3.23359 1.60625 -3.0034
RightLeg  23.1473 7.12935 2.50851
RightFoot  -7.51955 -0.0883166 -0.84133
RightToes  -27.2784 -0.125636 -0.232612
Spine  -2.10937 2.70828 -2.96323
Spine1  -4.3418 5.458 -5.24993
HEad  -55.4694 -20.1018 6.1919
LeftShoulder1  -1.94126e-019 -3.10601e-018 -2.51263e-017
LeftArm  -15.0601 37.1426 -69.3529
LeftForeArm  28.8133 -16.4802 -2.43645
LeftHand  -0.397403 -1.64082 6.7345
RightShoulder  -4.96962e-017 0 -2.36833e-017
RightArm  -18.7494 -16.8455 64.5674
RightForeArm  49.9083 30.0697 3.8716
RightHand  -0.343274 -1.98586 -11.5049
LeftUpLeg  -27.5327 -9.7059 0.606459
LeftLeg  13.8927 10.2804 1.83924
LeftFoot  14.5753 -0.342725 2.84102
LeftToes  -26.3523 1.87998e-006 4.79886e-008
270
root  -23.0762 33.1811 25.3006 -11.2294 -66.9095 22.3213
RightUpLeg  0.860316 -3.69787 -7.8723
RightLeg  34.1424 9.27328 5.40132
RightFoot  -2.6095 -0.0189945 -0.336734
RightToes  -55.604 -0.353528 -0.385313
Spine  -1.98099 2.32309 -3.64771
Spine1  -4.10098 4.75845 -6.56926
HEad  -54.6699 -21.1921 6.71424
LeftShoulder1  -1.94126e-019 -3.10601e-018 -2.51263e-017
LeftArm  -17.5874 34.6199 -68.4577
LeftForeArm  31.8255 -12.9501 -2.11515
LeftHand  -0.41597 -1.02066 7.67091
RightShoulder  -4.96962e-017 0 -2.36833e-017
RightArm  -25.8216 -19.5462 66.8384
RightForeArm  50.3548 28.5093 3.51843
RightHand  -0.307471 -2.74061 -13.1116
LeftUpLeg  -29.6043 -9.76042 -2.95062
LeftLeg  25.6928 10.5711 4.23764
LeftFoot  7.11407 -0.0914934 1.63333
LeftToes  -22.5843 1.87998e-006 4.79886e-008
271
root  -24.3913 33.2117 26.2098 -14.9355 -68.5284 25.4701
RightUpLeg  -3.59837 -8.1389 -10.8632
RightLeg  45.8943 8.19607 7.3353
RightFoot  7.56378 -0.0742157 1.59381
RightToes  -67.1704 -0.463203 -0.412412
Spine  -1.85155 2.53363 -3.97446
Spine1  -3.88397 5.12752 -7.23053
HEad  -54.0989 -23.3515 7.10734
LeftShoulder1  -1.94126e-019 -3.10601e-018 -2.51263e-017
LeftArm  -21.5288 31.3043 -67.6643
LeftForeArm  34.4117 -9.96817 -1.74281
LeftHand  -0.423781 -0.151945 8.95754
RightShoulder  -4.96962e-017 0 -2.36833e-017
RightArm  -35.4896 -22.5148 70.1576
RightForeArm  51.308 24.6773 2.68306
RightHand  -0.229946 -3.69278 -15.0099
LeftUpLeg  -27.3973 -5.29931 -5.31137
LeftLeg  28.187 8.29302 3.75746
LeftFoot  2.84798 -0.0121329 0.649629
LeftToes  -16.827 1.87998e-006 4.79886e-008
272
root  -25.6762 33.3915 26.8975 -18.4758 -72.3465 28.4865
RightUpLeg  -9.71758 -9.86053 -11.365
RightLeg  56.6498 4.20463 5.47855
RightFoot  17.102 -0.250265 2.16202
RightToes  -51.0125 -0.311875 -0.36852
Spine  -1.70372 2.8679 -3.76225
Spine1  -3.60734 5.78254 -6.83255
HEad  -54.7516 -24.0145 7.21562
LeftShoulder1  -1.94126e-019 -3.10601e-018 -2.51263e-017
LeftArm  -25.0181 29.6754 -67.7851
LeftForeArm  32.2319 -9.31403 -1.63331
LeftHand  -0.364895 1.4546 10.6859
RightShoulder  -4.96962e-017 0 -2.36833e-017
RightArm  -41.023 -23.6735 72.3998
RightForeArm  49.5756 18.7681 1.81123
RightHand  -0.0282263 -5.28589 -16.899
LeftUpLeg  -23.253 -1.04085 -5.66442
LeftLeg  26.3988 8.35631 3.47786
LeftFoot  0.0342443 -7.10906e-006 0.186318
LeftToes  -15.9289 1.87998e-006 4.79886e-008
